<svg width="127" height="126" viewBox="0 0 127 126" fill="none" xmlns="http://www.w3.org/2000/svg">
<g clip-path="url(#clip0_102_11)">
<path d="M44.7988 61.4861L44.5466 59.6982L44.5466 58.6872L44.4587 57.9398L44.4587 57.3198L44.3028 54.9105L44.2223 54.228L44.1303 51.7913L44.1304 23.6987C42.7275 23.5803 41.6438 23.4356 40.5571 23.4047C29.8688 23.0798 19.1772 22.8332 8.49224 22.409C6.35008 22.2821 4.23496 21.8303 2.207 21.0667C0.615408 20.4959 -0.0944395 18.7531 0.0101442 16.9754C0.0233675 16.1185 0.283628 15.2878 0.753653 14.6019C1.22428 13.9166 1.88002 13.4109 2.62894 13.1577C3.59303 12.7821 4.60521 12.5737 5.62821 12.5395C9.53386 12.5612 13.4389 12.6546 17.344 12.8196C24.9449 13.1353 32.5435 13.52 40.1442 13.862C41.1528 13.9074 42.165 13.868 43.3617 13.868L45.0105 13.862L45.6243 13.868L46.4023 14.0089L47.3301 14.0089L47.794 14.0091L48.2579 14.0089L48.7219 14.0089L49.1858 14.0089L50.1136 14.2056L51.9429 14.2455C52.9948 14.3408 53.8813 14.4783 54.7678 14.494C66.2822 14.6953 77.796 14.8702 89.3099 15.0859C90.331 15.0715 91.3489 15.2168 92.3326 15.5167C93.0397 15.7061 93.6673 16.152 94.1135 16.7821C94.5596 17.4114 94.7979 18.1875 94.7897 18.9839C94.7635 19.8362 94.471 20.6531 93.9609 21.2982C93.4509 21.9427 92.7541 22.3775 91.987 22.5281C90.0636 22.9042 88.1171 23.1206 86.1639 23.1759C75.9893 23.4231 65.8129 23.5948 55.6364 23.7868C54.6224 23.8059 53.6072 23.7868 52.1924 23.7868C52.4142 33.2696 52.6311 42.5302 52.8577 52.1979L52.8577 53.4963L52.8319 54.138L52.8577 54.9105L52.8319 55.5111L52.8577 58.2913L52.8319 59.9202C52.8319 61.511 52.8102 62.7212 52.8319 63.932C53.1276 78.5623 52.583 93.1657 51.6232 107.754C51.5256 109.438 51.3179 111.111 51.0016 112.763C50.6506 114.513 49.579 115.372 48.1863 115.301C46.6987 115.224 45.9678 114.215 45.7736 112.736C45.5935 111.405 45.4965 110.062 45.4833 108.716C45.431 98.8176 45.4713 88.9203 45.3577 79.0206C45.291 73.174 45.0007 67.3301 44.7988 61.4861Z" fill="black"/>
</g>
<g clip-path="url(#clip1_102_11)">
<path d="M62.628 105.17C62.4657 106.992 63.3259 109.07 64.506 109.709C65.1238 110.044 65.7642 110.237 66.4108 110.282C66.9507 110.317 67.4905 110.358 68.0303 110.4C69.2939 110.497 70.5878 110.597 71.8812 110.597C72.4009 110.597 72.9205 110.581 73.4373 110.542C75.9533 110.354 78.5078 110.074 80.9781 109.803C83.9371 109.48 86.9965 109.146 90.0063 108.964C97.8418 108.493 105.707 106.62 113.314 104.809L114.301 104.574C116.084 104.15 117.928 103.711 119.726 103.091C119.806 103.064 119.888 103.04 119.971 103.016C120.693 102.802 121.785 102.48 122.066 99.5969C122.081 99.4406 122.062 99.2805 122.014 99.1466C121.965 99.0128 121.89 98.9146 121.802 98.8714C121.613 98.7776 121.438 98.6744 121.272 98.5762C120.933 98.3442 120.576 98.1928 120.213 98.1271L119.067 98.0095C116.422 97.7381 113.688 97.4579 110.993 97.3328C103.356 96.97 95.7141 97.3153 88.0986 98.3667C83.1926 99.0547 78.1973 99.6176 73.3661 100.162C70.9189 100.438 68.4715 100.72 66.0242 101.007C65.5016 101.047 64.9841 101.202 64.484 101.468C64.003 101.711 63.5724 102.189 63.2434 102.846C62.9143 103.502 62.7006 104.308 62.628 105.17Z" fill="black"/>
<path d="M63.9378 72.4508C63.9259 73.1326 64.0254 73.8063 64.2248 74.3939C64.4242 74.9815 64.7152 75.4589 65.0643 75.7708C65.6572 76.2769 66.3017 76.5754 66.9609 76.6494C67.8351 76.7426 68.7524 76.8227 69.6838 76.8227C70.1394 76.8227 70.5981 76.8033 71.0566 76.757C73.7917 76.4843 76.5679 76.1617 79.2541 75.8502C84.2828 75.2673 89.4825 74.6618 94.5998 74.3572C101.566 73.9407 108.569 72.454 115.342 71.0161C117.118 70.6408 118.892 70.2702 120.665 69.9046C120.806 69.8764 120.95 69.8533 121.095 69.8302C122.133 69.6644 123.425 69.458 124.744 67.0031C124.785 66.927 124.815 66.8348 124.83 66.7345C124.846 66.6342 124.848 66.529 124.835 66.4275C124.822 66.3259 124.796 66.2312 124.757 66.1515C124.719 66.0718 124.67 66.0095 124.614 65.9698C122.205 64.2473 120.121 64.0115 118.022 63.9058L116.19 63.8138C110.387 63.5205 104.388 63.2171 98.4625 63.613C88.5029 64.2798 78.7496 65.9643 67.946 67.9344C66.9305 68.1271 65.9406 68.6146 65.0179 69.3767C64.6893 69.6598 64.4135 70.0987 64.2224 70.6427C64.0312 71.1867 63.9326 71.8135 63.9378 72.4508Z" fill="black"/>
<path d="M65.9876 39.8431C66.69 40.4385 67.4497 40.8023 68.2285 40.9158C68.6556 40.9709 69.0829 41.0276 69.5104 41.0859C71.4837 41.3511 73.519 41.625 75.5351 41.625C75.6909 41.625 75.847 41.6251 76.0028 41.6201C79.8141 41.5369 83.6876 41.3824 87.4338 41.2329C92.4039 41.0352 97.5434 40.8306 102.597 40.79C109.831 40.7318 117.098 39.2945 124.126 37.9048L124.351 37.8605C124.794 37.7129 125.217 37.4234 125.6 37.0067C125.856 36.7716 126.146 36.5063 126.502 36.2199C126.566 36.169 126.62 36.0878 126.658 35.9856C126.696 35.8835 126.716 35.7647 126.717 35.643C126.718 35.5213 126.699 35.4016 126.662 35.298C126.625 35.1944 126.572 35.111 126.509 35.0577C126.142 34.745 125.834 34.4448 125.561 34.1771C125.134 33.6771 124.654 33.3295 124.148 33.1545L122.767 32.8655C120.084 32.3026 117.31 31.7178 114.565 31.5189C99.7765 30.4456 84.7597 31.4533 70.2378 32.4284L67.6316 32.6029C67.2374 32.6299 66.8458 32.7264 66.463 32.8912C66.025 33.0346 65.6248 33.4171 65.3206 33.9832C65.0163 34.5492 64.8239 35.2693 64.7714 36.0385C64.7039 36.817 64.7867 37.6125 65.0067 38.3007C65.2267 38.989 65.5716 39.5313 65.9876 39.8431Z" fill="black"/>
</g>
<defs>
<clipPath id="clip0_102_11">
<rect width="94.7898" height="125.392" fill="white" transform="translate(94.7899 125.393) rotate(-180)"/>
</clipPath>
<clipPath id="clip1_102_11">
<rect width="64.4203" height="80.0582" fill="white" transform="translate(62.5798 30.8662)"/>
</clipPath>
</defs>
</svg>
